# xmcd
#
# Track frame offsets:
#	150
#	12964
#	29966
#	40294
#	51431
#	68392
#	87459
#	101892
#	120699
#	132742
#	149676
#	167490
#	181610
#	198266
#	211012
#	230173
#
# Disc length: 3253 seconds
#
# Revision: 0
# Processed by: cddbd v1.5.2PL0 Copyright (c) Steve Scherf et al.
# Submitted via: audiograbber 1.83.01
#
DISCID=ed0cb310
DTITLE=Ski-King - Sketchbook
DYEAR=2011
DGENRE=Country
TTITLE0=Ain't No Grave [trad]
TTITLE1=Gravedigger [trad]
TTITLE2=Breaking The Law [Judas Priest cover]
TTITLE3=The Devil's Right Hand [Steve Earle cover]
TTITLE4=Ghostriders In The Sky [Stan Jones cover]
TTITLE5=Turn The Page [Bob Seger cover]
TTITLE6=Stying Alive [Bee Gees cover]
TTITLE7=Close My Eyes feat. Rotten Bambi [Lita Ford cover]
TTITLE8=Bad Thing [Jace Everett cover]
TTITLE9=Built My Hate Around You [Heartbreak Engines cover]
TTITLE10=Camouflage Weird [Stan Ridgway cover]
TTITLE11=Highway To Hell [AC-DC cover]
TTITLE12=Don't Stop Believing [Journey cover]
TTITLE13=Thirteen [Danzig cover]
TTITLE14=Ain't No Nice Guy [Motörhead cover]
TTITLE15=My Way [Frank Sinatra cover]
EXTD=
EXTT0=
EXTT1=
EXTT2=
EXTT3=
EXTT4=
EXTT5=
EXTT6=
EXTT7=
EXTT8=
EXTT9=
EXTT10=
EXTT11=
EXTT12=
EXTT13=
EXTT14=
EXTT15=
PLAYORDER=
